<svg id="visual" viewBox="0 0 900 600" width="900" height="600" xmlns="http://www.w3.org/2000/svg" xmlns:xlink="http://www.w3.org/1999/xlink" version="1.1"><rect x="0" y="0" width="900" height="600" fill="#002233"></rect><path d="M0 470L21.5 477.8C43 485.7 86 501.3 128.8 506.5C171.7 511.7 214.3 506.3 257.2 486.8C300 467.3 343 433.7 385.8 424.2C428.7 414.7 471.3 429.3 514.2 442.7C557 456 600 468 642.8 478C685.7 488 728.3 496 771.2 491.8C814 487.7 857 471.3 878.5 463.2L900 455L900 601L878.5 601C857 601 814 601 771.2 601C728.3 601 685.7 601 642.8 601C600 601 557 601 514.2 601C471.3 601 428.7 601 385.8 601C343 601 300 601 257.2 601C214.3 601 171.7 601 128.8 601C86 601 43 601 21.5 601L0 601Z" fill="#0066FF" stroke-linecap="round" stroke-linejoin="miter"></path></svg>